<svg version="1" xmlns="http://www.w3.org/2000/svg" width="933.333" height="933.333" viewBox="0 0 700.000000 700.000000"><path d="M335.7 6.6c-.1.1-3.5.4-7.6.8-6.4.5-10.1 1-23.1 3.1-1.4.2-4.5.7-7 1-2.5.3-9.7 1.5-16 2.6-6.3 1.2-12.6 2.3-14 2.5-1.4.3-8.6 1.9-16 3.5C199.4 32 146.5 54.6 106 82.8c-6.3 4.4-7.6 5.4-15.7 11.7-10.6 8.4-36 32.1-35.2 32.9.2.2 2.9.7 5.9 1.1 10.7 1.3 13.1 4.2 9.6 11.5-4.5 9.4-12.9 28.5-21 47.8-6 14.1-7.8 17-22 35.5-13.8 17.9-20.4 27.5-23.9 34.6l-3.1 6.4-.2 23.6c-.2 31.7.1 33.4 6 38.7 2.5 2.3 6.4 5.1 8.7 6.1l4 1.8-.6 7.5c-.4 4.1-.9 9.1-1.1 11-1.3 9.2-2.5 16-2.9 17.2-.6 1.4 3.8 8.1 4.7 7.2.3-.2.8.2 1.2 1.1.3.9.2 1.3-.4 1-.6-.3-.7.1-.4.9.3.9 1 1.4 1.4 1.1.5-.3 1.2 0 1.6.6.5.8.3.9-.6.4-1-.6-1.2-.1-.7 2.6.5 2.6 7 37.9 9.1 49.5 2.6 13.6 14.9 52.4 18.1 56.8.9 1.1 3.3 4.3 5.5 7.1 4.8 6.1 12.4 21.2 17.9 35.8 2.3 5.9 4.5 11.5 5 12.5.6.9 2.6 6 4.7 11.2 3.5 9.1 4.1 9.9 13.3 19 13.6 13.3 25.6 23.2 55.6 45.6 14.3 10.7 30.4 22.9 35.8 27 9.3 7.2 9.9 7.5 11.2 5.7.8-1 1.7-2.6 2-3.6 1-2.8 2.8-2.1 10.6 4.2 7.3 5.7 9.2 6.7 14.6 7.7 5.2 1 6.9-.2 9.3-6.6 1.2-3.3 2.4-6 2.6-6 .1 0 1 2.4 1.8 5.3 1.8 6.1 7.8 15.8 12.7 20.3 3.9 3.6 5.9 4.3 23.2 8.3l12.8 3 4.9-3.1c6.9-4.3 11.5-3.7 20.4 2.6l6.6 4.7 10.2.5c5.7.3 11.1.7 12.1.9 1.8.3 2.3-1.5.7-3.1-1.3-1.3-2.3-8.1-1.2-8.8.5-.3 2.4-.1 4.1.4 10.5 3 51.9 3.4 66.6.6 1.1-.2 4-.7 6.5-1 21.4-3.3 77.1-20.1 93-28 17.4-8.8 40.7-24.1 59.5-39.3 12-9.6 39.3-37.6 50.6-51.8 8.4-10.5 27.2-38.3 30.7-45.5.7-1.4 1.8-3.4 2.5-4.5 2.5-3.9 8.2-15.2 11.9-23.4 6.6-14.7 15.4-42.3 15.7-49.3.1-1 3-3.7 6.8-6.3l6.8-4.5h-5.8c-3.7 0-5.9-.4-6.2-1.2-.2-.7-.6-5.9-.8-11.6l-.3-10.3-4.4-6c-5.4-7.4-18.7-20.2-26.6-25.4-8.4-5.7-8.8-5.9-20.1-11.5-9.3-4.7-10.6-5.7-14.3-11.1-2.2-3.2-4-6.3-4-6.8s-.3-1.1-.7-1.3c-.5-.2-3.4-3.7-6.5-7.8-9.8-12.8-14.1-16.7-24.3-21.8-8.8-4.4-25.3-9.6-40.8-12.7-5.1-1.1-21.8-7-26.9-9.6-5.3-2.7-6.5-2.9-12.5-2.3-3.7.3-7 .7-7.3.9-.3.2-3 .6-6 1-2.9.3-5.6.8-6 1-1 .6-15.9 1.6-28 1.9-9.9.2-12.8.7-20.8 3.5-15.1 5.2-27.1 12.6-37.3 23.1-7.8 8.1-11.6 13.4-16.3 23.2-13.2 27.6-9.9 58.7 9.1 84.3 11.1 15 25.5 24.5 47.8 31.5 26.2 8.1 32.7 9.2 52.4 8.8 9.4-.2 16.7.1 16.4.6-.3.4-4 3-8.2 5.7-4.2 2.7-6.8 4.9-5.8 4.9.9 0 1.8.8 1.8 1.7.5 6.3.3 8.5-1.7 14-1.2 3.5-3.6 8.2-5.4 10.5-4.1 5.3-14 13.7-23.1 19.9-5.7 3.8-7.4 5.5-9.9 10.5-7.2 14.5-20 24.1-38.5 29-8.9 2.3-32.2 2.7-45 .8-14.7-2.2-17.8-2.5-28.6-2.9-5.7-.2-12.2 0-14.4.5-2.2.5-5.3 1.2-7 1.5-5.3 1.2-24.8 1.4-30.3.4-8.6-1.6-19-5.5-25.6-9.5-6.2-3.8-14.5-11.7-17.3-16.5-.9-1.5-3.5-3.7-5.7-5-2.3-1.3-4.7-2.9-5.4-3.6-.7-.7-1.6-1.3-2-1.4-.4 0-4.1-.1-8.3-.2-6.6-.2-8-.6-11.2-3-4.7-3.6-5.9-5.9-6.1-11.7-.1-4.3-.6-5.2-8.6-13.9-4.7-5.1-11.8-13.6-15.8-18.9l-7.2-9.7-8.8-.5-8.7-.5 2.6-2.5c1.5-1.4 3.8-3.5 5.3-4.7l2.6-2.1-1.9-4.4c-1-2.4-3.2-7.2-4.8-10.8-3.5-7.5-9.5-25.2-12.1-35.7-1.1-4.5-2.2-6.9-2.9-6.5-.6.4-2.5 2.9-4.2 5.6-3.6 5.8-3.9 4.6-1.5-6.6.8-4 1.7-8 1.9-8.8.1-.8.8-3.4 1.4-5.7.6-2.3.9-5.9.6-8-.3-2.1-.8-12.1-1.1-22.3-.2-10.2-.8-18.8-1.3-19.3-.4-.4-2.1-.3-3.7.3s-5.5 1.7-8.7 2.5l-5.7 1.3 2.5-3.1c16.5-20.5 28.3-37.6 31.6-46.2 2-5 2.8-5.9 4.9-6 2.2 0 2.6.6 3 4.5.5 4.1.6 4.3 1.4 2 1.8-5 7-15.7 10.7-21.9 2.2-3.4 3.9-6.5 3.9-6.8 0-.3 1.5-2.4 3.3-4.6l3.2-4.2-3 2.2c-1.6 1.2-6.1 4.7-10 7.7-3.8 3.1-7.3 5.6-7.8 5.6-.8 0 7.4-15.8 10.4-20.2 1.1-1.4 1.9-2.9 1.9-3.2 0-1.3 17.2-26.6 23-34 3.8-4.8 13.4-16.2 14.4-17.1 3.5-3.1 12.6-15 16-20.8 2.2-3.6 4.8-7.6 5.8-8.7 1.1-1.1 1.6-2.5 1.2-3.2-.4-.6-.3-.8.4-.4.6.3 2.7-.3 4.7-1.5 4.1-2.5 9.8-2.2 14.2.6l2.6 1.7-7.9 3.4c-4.3 1.9-8.9 4.4-10.2 5.7-2.3 2.1-7.2 10.4-5.5 9.4.4-.3 5.9-3.9 12.2-8.1 25.4-17 57.1-29.3 86.6-33.6 4.4-.6 9.4-1.4 11-1.6 5.4-.9 21.8-1.1 30-.3 14.8 1.3 22 2.1 22.6 2.5.3.2 2.4.6 4.5.9 4.4.5 7.8 1.2 10.2 1.9.9.3 3 .7 4.5 1 9.1 1.6 33 9.5 52.2 17.3 11.1 4.5 35.8 16.6 45 22 6.5 3.8 17.9 10.9 23 14.2 8.7 5.6 25.6 19.4 35.3 28.7 9.4 8.9 23.9 26.5 26.4 32 .7 1.5 3.3 3 8.1 4.8 3.9 1.4 7.2 2.4 7.5 2.1.2-.2-.3-2.3-1.2-4.6-.9-2.3-1.5-4.4-1.2-4.6.2-.3 2.1-.9 4.2-1.3 5.4-1.2 10.5.7 12.4 4.7.8 1.8 1.9 3.3 2.3 3.3 1.7 0 1.8-3.2.2-5-1.7-1.9-1.7-2 1.8-3.5 6.6-2.7 11.7-1.2 11.7 3.6 0 1.6 2 2.5 4.3 1.8.1 0 1.4.4 3 1 2.6 1 2.7.9 2.7-2.2 0-4.1-2.2-12.2-4.4-16.5-1-1.9-1.5-3.6-1.3-3.8.7-.8 9.9 6.5 13.9 11l3.6 4.1-1.5-6.5c-7.1-31.4-27-67.7-58.4-107-5.1-6.3-9.5-11.7-9.8-12-.3-.3-3.3-3.7-6.6-7.5-10.4-12.2-31.3-33.5-42-42.7-11.6-10-28.5-22-40-28.4-24.1-13.4-42.8-22-61-28.1-30.4-10.3-32-10.5-61.4-9.9-13.5.2-25.7.7-27.1 1.1-5.4 1.3-11-.5-15.2-4.7-3.3-3.3-4.8-4.1-8-4.2-2.2-.1-4 0-4.1 0zM505 455.5c-1.4.8-2.9 1.4-3.5 1.4-.5 0 .1-.6 1.5-1.4 1.4-.8 3-1.4 3.5-1.4.6 0-.1.6-1.5 1.4zm-5 1.9c0 .2-3.4 2.7-7.5 5.4-4.1 2.8-7.2 4.6-6.9 4 .5-.8 13.3-9.6 14.2-9.8.1 0 .2.2.2.4z"/><path d="M603 285.8v2.8l7.8.1c4.2.1 10.6.2 14.2.3 8.6.2 9 .2 9-1 0-2.1-3.7-4.6-6.5-4.4-1.7.1-4 .2-5.2.3-1.6.1-2 .6-1.6 2.1.4 1.4 0 2-1.1 2-1 0-1.5-.4-1.1-.9 1.2-2-3.9-4.1-9.7-4.1-5.7 0-5.8.1-5.8 2.8zM591.8 287.2c1.3 1.3 7.2 1.9 7.2.7 0-.3-1.4-.9-3.1-1.3-4.7-.9-5.5-.8-4.1.6zM658.2 298.2c-.6 3.4-2.3 7.9-3.9 10.2-1.5 2.3-2.6 4.5-2.4 5.1 2.5 7.8.3 13.3-9.3 23.4-9.5 9.9-9 10 3.1.1 7-5.7 15.4-15.3 18.2-20.8 2-4.1 1.9-8-.6-15.7-2.8-8.9-3.8-9.3-5.1-2.3zM471.1 483c-1.2 2.7-2.1 5.1-2.1 5.5 0 .3 1.9-.5 4.3-1.9 2.3-1.3 6.8-3.7 10-5.4l5.8-2.9h-8l-7.9-.1-2.1 4.8zM210.2 494.5c7.5 17.4 25.1 31.3 47.9 37.8 7.2 2.1 18.9 4 18.9 3.1 0-.1-1.7-.8-3.7-1.5-10.7-3.5-29.3-13.9-42.8-23.9-8.9-6.6-10.2-7.8-17.8-14.9l-3.9-3.6 1.4 3zM398.9 538.5c-.7.7-19.9 5.4-24.4 6-2.2.3-5.1.8-6.5 1.1-4.5 1.1-40.4 1.4-46.5.5-3.3-.5-8-1.2-10.5-1.6-2.5-.3-6.3-1-8.5-1.5s-4.1-.8-4.2-.6c-.4.4 18.3 7.8 30.7 12.1 12.2 4.2 19.6 5.8 27.3 5.7 7.2-.1 14.1-1.4 18.7-3.5 6.4-3 27.3-18.7 24.8-18.7-.3 0-.7.2-.9.5z"/></svg>