<svg width="106" height="104" xmlns="http://www.w3.org/2000/svg"><g fill="none"><g opacity=".9"><path d="M44.653 80.955c2.644.677 5.372.977 8.1.889a30.44 30.44 0 0 0 7.934-1.347 25.343 25.343 0 0 1-3.223 2.475c-.477.292-.997.51-1.54.644-.54.113-1.087.184-1.637.213a7.162 7.162 0 0 1-.831 0c-.277 0-.56-.052-.838-.09a10.617 10.617 0 0 1-1.663-.355c-2.184-.586-4.24-1.662-6.302-2.43zm-13.024-7.489a.14.14 0 0 0 .051 0 28.355 28.355 0 0 0 10.737 6.8c-.284-.072-.574-.11-.864-.175a14.12 14.12 0 0 1-5.903-1.933 9.602 9.602 0 0 1-4.021-4.692z" fill="#FEE4BB"/><path d="M49.563.097a72.03 72.03 0 0 0-8.693 12.05 36.578 36.578 0 0 0-4.376 12.297c-.457.563-.859 1.17-1.199 1.81a5.801 5.801 0 0 1-1.14 1.509c.096.077-1.29 1.437-2.765 3.273-.76.909-1.514 1.972-2.223 2.984-.71 1.012-1.29 2.03-1.805 2.848-1.501-3.44-3.022-7.346-4.73-11.6-.548.325-1.075.682-1.579 1.07a56.74 56.74 0 0 0-1.714 1.29c-1.134.798-2.127 1.443-2.726 1.063a9.984 9.984 0 0 1-2.243-3.223 12.418 12.418 0 0 1-.928-3.924 24.548 24.548 0 0 1 1.38-9.139l1.346-.953a71.979 71.979 0 0 1 2.817-1.798 63.719 63.719 0 0 1 8.964-4.447 68.24 68.24 0 0 1 11.239-3.39C42.964.992 46.586.522 49.563.097z" fill="#FEEDD1"/><path d="M76.36 6.245a40.484 40.484 0 0 1 9.215 6.728 74.209 74.209 0 0 1 6.058 6.63c-3.693 1.07-7.212 2.25-10.685 3.088.921 2.268 1.16 4.15 2.223 5.845-.702.11-1.373.219-2.056.348a57.19 57.19 0 0 0-12.424-6.11 42.34 42.34 0 0 0-12.625-2.513 10.559 10.559 0 0 1 2.294-2.713 38.03 38.03 0 0 1 5.44-4.111c2.184-1.412 4.646-2.759 6.914-3.957a53.802 53.802 0 0 0 5.645-3.235z" fill="#FEF1DB"/><path d="M54.9 1.347a59.437 59.437 0 0 1 8.255-.18 50.164 50.164 0 0 1 13.21 5.078 146.78 146.78 0 0 1-15.95 9.866c.645.142.645 2.198 1.251 2.352-3.106.542-4.846-.038-5.574 1.779a22.832 22.832 0 0 0-2.527.09L52.2 20.5c-.457.051-.908.142-1.36.206a33.01 33.01 0 0 0-14.603 6.36c.086-.445.284-.862.574-1.211.249-.3.556-.545.902-.722.34-.19.69-.357 1.05-.502.368-.13.727-.28 1.077-.452a2.333 2.333 0 0 0-1.888-.644 2.72 2.72 0 0 0-1.457.954 36.578 36.578 0 0 1 4.376-12.296A72.028 72.028 0 0 1 49.563.097 36.397 36.397 0 0 1 52.077 0c.767.857 1.327 1.688 2.822 1.347z" fill="#FEEFD6"/><path d="M30.83 82.733c-6.406-.644-12.709-.85-19.256-1.108-.22-.503-.464-1.14-.729-1.85-.264-.709-.586-1.45-.915-2.23a21.185 21.185 0 0 0-1.16-2.249 10.005 10.005 0 0 0-1.527-1.933 51.504 51.504 0 0 1-2.977-10.382c-.735-3.693-1.044-7.012-2.037-7.907-.483-.451-.2.07.58 1.14.482.67.998 1.316 1.547 1.934.69.806 1.421 1.576 2.19 2.307a36.033 36.033 0 0 0 5.466 4.37c.954.644 1.894 1.153 2.752 1.604a26.28 26.28 0 0 0 2.378 1.082 9.473 9.473 0 0 1 4.143.065c1.433.31 2.848.696 4.24 1.153.2.703-1.565 1.064-1.398 1.824.443-.072.892-.1 1.34-.084h1.174l.47.696c.277.439.728 1 1.205 1.637a34.11 34.11 0 0 0 3.222 3.525 2.044 2.044 0 0 0 1.29 2.694 2.733 2.733 0 0 0 2.203.078c.297.219.645.405.928.605.284.2.612.413.941.58l.045.058c-1.306.286-2.634.46-3.97.522-.882.194-2.146 1.87-2.146 1.87z" fill="#FEE7C3"/><path d="M16.632 28.69a9.983 9.983 0 0 1-2.242-3.222 12.418 12.418 0 0 1-.928-3.924 24.547 24.547 0 0 1 1.36-9.139 49.28 49.28 0 0 0-3.867 3.261c-.703.645-1.289 1.244-1.805 1.734-.515.49-.837.838-.94.96 1.398.142 3.1.064 2.693 1.424-.4.812-.786 1.689-1.205 2.578l-1.153 2.636c-.348.87-.716 1.694-1.031 2.468-.316.773-.645 1.463-.916 2.05a22.431 22.431 0 0 1-1.495 2.12c-.522.715-1.102 1.436-1.682 2.184-.58.748-1.16 1.495-1.707 2.269-.548.773-1.032 1.662-1.47 2.52a44.691 44.691 0 0 0-.026 9.08c0 .212 1.805 1.881 2.668 1.933a25.53 25.53 0 0 1-.25 2.784c-.098.902-.265 1.791-.407 2.68.116.046.645 1.038 1.553 2.437.47.696 1 1.488 1.624 2.313a31.68 31.68 0 0 0 2.114 2.468c.762.809 1.58 1.562 2.449 2.256a17.252 17.252 0 0 0 2.578 1.74c.777.445 1.609.788 2.474 1.018a5.53 5.53 0 0 0 2.12.194 9.474 9.474 0 0 1 4.144.064c1.433.31 2.848.696 4.24 1.154 0 0-.193-.4-.483-.967-.141-.284-.283-.645-.457-1.012a16.726 16.726 0 0 1-.516-1.237 33.026 33.026 0 0 1-1.579-5.356c-.464.207-1.256 1.592-1.34 1.992a9.19 9.19 0 0 1 .31-2.172c.128-.51.231-1.031.36-1.502.111-.388.202-.781.27-1.179-.064-.451-.076-1.083-.154-1.766-.077-.683-.084-1.43-.09-2.14-.039-1.41 0-2.642-.058-2.854 0-.535-1.418.47-2.816.444a58.139 58.139 0 0 0 4.807-6.515c.232-.593.4-1.192.645-1.766.573 0 .966 0 .883.207 0 .412.038.812 0 1.205.424-1.08.915-2.132 1.469-3.151a33.34 33.34 0 0 1 1.875-3.004 40.59 40.59 0 0 1-3.286 2.578 36.41 36.41 0 0 1 1.933-3.525c.016-.052.036-.104.058-.155-1.502-3.434-3.016-7.32-4.71-11.548-.549.324-1.076.681-1.58 1.07-.567.412-1.166.857-1.714 1.289-1.128.76-2.12 1.404-2.72 1.024z" fill="#FEE8C6"/><path d="M76.862 42.74c2.107 1.237 4.627 1.797 6.999 2.403 2.371.606 4.543 1.25 6.2 2.72a30.092 30.092 0 0 1 3.33 4.337c.974 1.475 1.934 2.99 2.85 4.51a38.992 38.992 0 0 0 3.041 4.563 8.171 8.171 0 0 0 2.223 1.934 6.015 6.015 0 0 0 3.867.69 18.084 18.084 0 0 1-2.449 1.546l-.677.335-.335.155-.303.129-.592.245a24.48 24.48 0 0 1-1.077.373c-1.078.34-2.181.6-3.3.774a34.52 34.52 0 0 1-4.678.373c-2.707.039-5.007-.103-7.237-.245l-6.303-.463-2.848-.187-2.34-.11H72.77s-.039 0 0 0l-.045-.2-.18-.805-.368-1.586c-.116-.47-.252-.96-.374-1.404-.2-.825-.509-1.721-.722-2.391a13.926 13.926 0 0 0-1.475-3.223 2.29 2.29 0 0 0-.323-.406 1.618 1.618 0 0 0-.251-.219.49.49 0 0 0-.097-.051h-.045l-.419-.084a.238.238 0 0 1 .084-.039c.09-.045.129-.122.277-.251.838-.986 2.043-3.5 3.429-6.812l1.056-2.636.065-.174v-.077c.034.03.07.055.11.078.103.057.257.128.425.206.644.309 1.56.644 2.455.966l.645.245.348.123.644.193 2.533.767c3.357.999 6.695 1.933 9.911 2.951a44.72 44.72 0 0 1 4.582 1.644 19.747 19.747 0 0 1 3.641 2.1c-1.862-.218-3.776-.644-5.877-.966-2.1-.322-4.292-.645-6.444-.928a34.324 34.324 0 0 0-6.161-.264c-.91.057-1.81.21-2.688.457-.405.12-.802.268-1.185.445a3.646 3.646 0 0 0-1 .644.85.85 0 0 0 .085.561c.146.23.315.446.502.645.4.424.765.88 1.09 1.366-.645.103-1.328.18-1.992.238-.664.058-1.289.116-1.933.148a81.277 81.277 0 0 1-3.938.104 7.312 7.312 0 0 1-1.031-.058 1.89 1.89 0 0 1-.754-.258l-.148-.11-.078-.051c-.038 0-.09-.097-.135-.142a2.433 2.433 0 0 1-.238-.335.507.507 0 0 1-.052-.103 1.116 1.116 0 0 1-.077-.207 1.846 1.846 0 0 1-.084-.457 1.98 1.98 0 0 1 0-.445v-.103l.039-.2a2.45 2.45 0 0 1 .11-.38c.08-.206.185-.403.309-.586l.16-.232.149-.187.27-.31.252-.257.76-.767c.825-.87 1.212-1.618 1.064-2.494a5.754 5.754 0 0 0-1.837-3.061 7.374 7.374 0 0 0-2.004-1.328 4.446 4.446 0 0 0-.683-.264c-.245-.071-.464-.161-.729-.226l-.863-.141-.419-.071h-.412l.322-.187.251-.135.49-.252c.36-.18.593-.27.857-.38l.387-.155.322-.122.644-.206c.605-.195 1.22-.356 1.843-.484a18.78 18.78 0 0 0 4.582-.129c1.431-.186 2.926-.496 4.46-.625z" fill="#FDDCA9"/><path d="M71.494 72.777a.984.984 0 0 0-.645.393c.303-.606.58-1.199.831-1.772.86.064 1.722.049 2.578-.045a27.63 27.63 0 0 0-2.764 1.424z" fill="#FDDFB0"/><path d="M77.075 57.703a10.487 10.487 0 0 0-1.09-1.366 4.35 4.35 0 0 1-.502-.645.85.85 0 0 1-.084-.56c.296-.268.633-.486.999-.645.384-.177.78-.325 1.186-.444.877-.247 1.778-.4 2.687-.458a34.332 34.332 0 0 1 6.16.264c2.147.252 4.35.58 6.445.928 2.095.348 4.015.748 5.878.967a19.55 19.55 0 0 1 3.795 3.615c.27.33.511.681.722 1.05.061.111.089.236.084.362v.354l.032.709.11 2.816a38.365 38.365 0 0 1-4.756 12.593l.187-2.23c.079-.693.1-1.392.064-2.088-.22.547-.54 1.05-.94 1.482-.375.43-.792.82-1.245 1.166a15.88 15.88 0 0 1-2.848 1.695c-1.025.451-2.03.851-2.92 1.334-.437.232-.853.501-1.243.806-.378.321-.73.67-1.057 1.044.206-.683.284-1.424.438-2.095l.426-1.984c.103-.645.206-1.29.322-1.934.051-.316.116-.644.16-.921.046-.277 0-.645 0-.922v-1.733c0-.555-.102-1.115-.167-1.63a9.112 9.112 0 0 0-.812-2.772l-.148-.29c-.07-.116-.348-.135-.541-.161a14.49 14.49 0 0 0-1.29-.065c-.856 0-1.7 0-2.512.084-1.535.101-3.06.316-4.563.645a14.487 14.487 0 0 0-6.909 3.344l-.902.039h-.715l-.22-.045-.444-.097a63.052 63.052 0 0 1-3.75-.928 25.138 25.138 0 0 1-1.128-.341 25.545 25.545 0 0 1-1.489-.529l-.535-.225-.354-.161-.387-.194-.522-.277-.29-.161-.444-.277-.439-.29-.212-.155-.439-.335a15.34 15.34 0 0 1-.844-.734l-.393-.394-.174-.186-.174-.284a12.64 12.64 0 0 1-1.933-2.997l-.071-.167-.155-.368a17.051 17.051 0 0 1-.27-.754 12.05 12.05 0 0 1-.4-1.63 12.37 12.37 0 0 1-.129-3.37c0-.271.065-.542.11-.8l.083-.457.071-.303c.045-.2.103-.4.161-.6.11-.398.244-.79.4-1.172.266-.687.596-1.347.986-1.972.331-.534.702-1.042 1.108-1.521.333-.396.688-.773 1.064-1.128l.264-.225.206-.18.432-.355.445-.335.206-.161.167-.11c.226-.148.451-.29.684-.425h.502l.419.07.864.142c.264.065.483.155.728.226.234.069.463.157.683.264.736.33 1.413.778 2.004 1.328a5.755 5.755 0 0 1 1.837 3.06c.148.877-.239 1.625-1.064 2.495l-.76.767-.251.257-.271.31-.148.187-.161.231a3.08 3.08 0 0 0-.31.587 2.45 2.45 0 0 0-.11.38l-.038.2v.103a1.99 1.99 0 0 0 0 .445c.009.155.037.309.084.457.019.071.045.14.077.206a.51.51 0 0 0 .052.104c.07.118.15.23.238.335.045.045.097.11.136.142l.077.051.148.11c.23.138.487.226.754.257.342.044.687.063 1.031.058 1.29 0 2.578-.038 3.938-.103.644 0 1.289-.084 1.933-.148.645-.064 1.308-.129 1.966-.232z" fill="#FDDFB0"/><path d="M88.745 80.42c.327-.374.68-.723 1.057-1.044.39-.305.806-.574 1.244-.806.89-.483 1.895-.882 2.92-1.334a15.89 15.89 0 0 0 2.848-1.695c.453-.346.87-.736 1.244-1.166.401-.432.72-.935.94-1.482.036.696.015 1.395-.064 2.088l-.187 2.23c-.16.302-.296.605-.483.908l-.58.883-1.147 1.779c-.4.586-.735 1.192-1.18 1.76l-1.36 1.694a31.19 31.19 0 0 1-2.854 3.293c-1.05 1.038-2.043 2.12-3.126 3.126-.547.483-1.153.966-1.695 1.417l-1.288 1.064c-.89.644-1.824 1.289-2.733 1.933-.909.645-1.895 1.192-2.848 1.772l-1.476.857-1.502.748c-.58.187-1.147.374-1.707.58-.787.329-1.605.535-2.379.805l-2.3.761-2.275.612c-.754.193-1.489.438-2.243.561a36.915 36.915 0 0 1-9.144.934 47.49 47.49 0 0 0 9.95-10.137c.477.103.967.232 1.443.297.477.064.967.129 1.463.186l1.508.149.767.051h.767c1.018 0 2.069-.038 3.145-.11 1.076-.07 2.107-.29 3.222-.483l.819-.154.792-.213c.535-.142 1.07-.296 1.611-.464.542-.167 1.096-.329 1.63-.528.536-.2 1.058-.432 1.593-.645.534-.213 1.288-.644 1.933-1.03.644-.388 1.25-.826 1.895-1.258l1.933-1.372.98-.722c.302-.258.592-.528.889-.8a4.576 4.576 0 0 1-2.417 1.257c-.66.11-1.338.078-1.985-.096-1.186-.284-2.165-.786-3.054-.393-.94.255-1.908.38-2.881.373-.891-.01-1.779-.111-2.649-.302a16.158 16.158 0 0 1-4.717-1.901 11.929 11.929 0 0 1-3.267-2.894 5.84 5.84 0 0 1-1.29-3.067l1.18-.954c.406-.303.792-.632 1.154-.986l.27-.258.142-.129.058-.064.161-.194c.11-.129.194-.277.284-.406.329-.489.59-1.02.78-1.579.148-.446.222-.915.219-1.385 0-.196-.024-.39-.071-.58v-.13s0-.044-.032-.057h-.11a3.775 3.775 0 0 0-.464-.039c.567-.316 1.289-.74 1.791-1.102.503-.36.845-.644.755-.644-1.38 0-2.469.096-3.358.142a14.486 14.486 0 0 1 6.908-3.345 30.848 30.848 0 0 1 4.563-.644 32.01 32.01 0 0 1 2.513-.084c.432 0 .864 0 1.29.064.193 0 .47.045.54.161l.149.29c.416.875.69 1.81.812 2.771.064.516.148 1.07.167 1.63.02.561 0 1.135 0 1.734v.922c0 .277-.11.606-.16.922-.117.644-.22 1.288-.323 1.933l-.425 1.985c-.271.58-.368 1.32-.555 2.004z" fill="#FDE1B5"/><path d="M66.377 92.561a47.49 47.49 0 0 1-9.918 10.137 64.14 64.14 0 0 1-2.423-.161c-.819-.071-1.644-.245-2.481-.4a2.313 2.313 0 0 0 .509 1.863c-1.212 0-2.417-.11-3.622-.181-.715-.264-1.334-.986-2.062-1.346-.728-.361-1.547-.413-2.816.683a53.548 53.548 0 0 1-5.001-1.186 7.49 7.49 0 0 1-2.713-4.511c-.252.644-.51 1.289-.767 1.933a2.494 2.494 0 0 1-1.412.077 3.6 3.6 0 0 1-1.14-.58c-.355-.257-.683-.554-1.025-.825a5.259 5.259 0 0 0-1.057-.753c-.203.43-.463.83-.773 1.192-1.605-1.29-3.377-2.61-5.156-3.906-1.778-1.295-3.57-2.629-5.155-3.898a52.737 52.737 0 0 1-6.393-5.671l-1.373-3.403c6.548.258 12.85.483 19.256 1.108 0 0 1.29-1.675 2.153-1.933a23.726 23.726 0 0 0 3.97-.522 8.546 8.546 0 0 0 3.57 3.351 11.956 11.956 0 0 0 4.395 1.199c1.7.11 3.405-.08 5.04-.561.412.052.837.039 1.288.065.451.025.838.038 1.289 0 1.186.135 2.54.29 4.034.54l2.314.156c.805.01 1.61-.031 2.41-.123a10.883 10.883 0 0 0 2.39-.535c.393-.113.774-.26 1.142-.438.366-.194.721-.41 1.063-.645.34-.219.67-.456.986-.708.3-.287.58-.595.838-.922.557-.659.98-1.42 1.243-2.243l1.58-1.063a5.838 5.838 0 0 0 1.288 3.068 11.929 11.929 0 0 0 3.267 2.893 16.158 16.158 0 0 0 4.718 1.901c.87.192 1.758.293 2.648.303.973.007 1.942-.119 2.881-.374a20.185 20.185 0 0 1 2.178-.721l1.392-.355.78-.2.715-.219c1.882-.547 3.41-.786 2.288.793-.282.34-.586.664-.909.967-.341.303-.695.599-1.056.902a61.412 61.412 0 0 1-2.25 1.753c-.773.59-1.599 1.108-2.468 1.546l-.644.335-.529.233-1.05.444c-1.435.5-2.898.912-4.382 1.237a40.986 40.986 0 0 1-4.221.542c-1.36.045-2.578.038-3.693 0-1.115-.039-2.082-.232-2.868-.348l-1.03-.168c-.304-.064-.561-.135-.761-.187l-.477-.135z" fill="#FEE4BB"/><path d="M100.771 46.529a12.892 12.892 0 0 1-5.24 5.059 13.914 13.914 0 0 0 2.675-2.507c.644-.915.909-1.933.393-2.79.883-.722 1.173-1.972 1.192-3.184a5.803 5.803 0 0 1 .98 3.422zm-9.396-3.932a1.806 1.806 0 0 0-.039-.29 2.224 2.224 0 0 0-.077-.354 3.584 3.584 0 0 1 1.875-.039c.197.044.37.162.483.33a.387.387 0 0 1 0 .225.516.516 0 0 1-.16.212c.689 0 .702-.174.592-.335-.11-.16-.29-.29.052-.341 1.836-.303 1.991.238 1.778.799-1.572 0-3.15-.116-4.324-.13h-1.424c-.342 0-.535 0-.554-.05a2.283 2.283 0 0 1-.071-.31c.715.039 1.095.264 1.869.283z" fill="#FFF6E9"/><path d="M83.171 28.536c-1.063-1.695-1.289-3.577-2.223-5.845 3.473-.838 6.992-2.017 10.684-3.087a61.26 61.26 0 0 1 6.09 8.52 30.233 30.233 0 0 1 3.867 9.756 8.539 8.539 0 0 0-2.829-2.48c.644 1.172 1.173 2.448.98 3.692a2.978 2.978 0 0 0-1.347-.22h-.039c-.064-.895-.464-1.559-2.146-.773-.644.271 1.102.813-.225 1.29a1.078 1.078 0 0 0-.832-1.29 2.578 2.578 0 0 0-1.933.245c.24.432.456.877.644 1.334-.812.058-1.47-.541-2.294-.702a24.025 24.025 0 0 0-4.343-5.362 42.724 42.724 0 0 0-6.071-4.769c.644-.09 1.334-.2 2.017-.309z" fill="#FEF4E5"/></g><path d="M17.477 44.035v1.772l-3.758.187v-1.527c0-2.063-.773-2.984-2.287-2.984-1.515 0-2.288.921-2.288 2.616v14.055c0 1.695.741 2.617 2.25 2.617 1.507 0 2.248-.922 2.248-2.984v-4.42h-2.21V49.75h6.045v8.442c0 3.905-2.25 6.193-6.155 6.193-3.905 0-6.083-2.288-6.083-6.193V44.015c0-3.905 2.21-6.193 6.083-6.193s6.155 2.307 6.155 6.213zm16.478 14.197c0 4.053-2.32 6.154-6.083 6.154-3.764 0-6.007-2.1-6.007-6.154V38.209h3.758v19.913c0 1.876.85 2.578 2.216 2.578 1.367 0 2.21-.702 2.21-2.578V38.21h3.906v20.023z" fill="#000"/><path fill="#000" d="M38.8591 64.0189L38.8591 38.209 42.7709 38.209 42.7709 64.0189z"/><path fill="#000" d="M58.3277 60.3327L58.3277 64.0189 47.8942 64.0189 47.8942 38.209 51.7995 38.209 51.7995 60.3327z"/><path d="M67.356 38.209c4.202 0 6.49 2.288 6.49 6.528v12.754c0 4.24-2.288 6.528-6.49 6.528h-5.6v-25.81h5.6zm-1.694 22.195h1.546c1.882 0 2.733-.993 2.733-3.171V44.989c0-2.172-.851-3.171-2.733-3.171h-1.546v18.586z" fill="#000"/><path fill="#000" d="M82.488 41.8243L82.488 49.1258 88.1978 49.1258 88.1978 52.7347 82.488 52.7347 82.488 60.4036 89.5769 60.4036 89.5769 64.0189 78.5634 64.0189 78.5634 38.209 89.5769 38.209 89.5769 41.8243z"/><path d="M99.398 38.209c4.202 0 6.483 2.288 6.483 6.528v12.754c0 4.24-2.281 6.528-6.483 6.528h-5.607v-25.81h5.607zm-1.701 22.195h1.546c1.876 0 2.726-.993 2.726-3.171V44.989c0-2.172-.85-3.171-2.726-3.171h-1.546v18.586z" fill="#000"/><path fill="#000" d="M5.53516 35.2639L5.53516 28.8774 9.66603 28.8774 9.66603 29.3285 5.97982 29.3285 5.97982 31.8419 8.86692 31.8419 8.86692 32.3059 5.97982 32.3059 5.97982 35.2639z"/><path d="M19.004 35.264l-2.649-3.222h.787c.401.012.801-.051 1.179-.187.228-.112.426-.275.58-.477.158-.2.244-.448.245-.703a1.18 1.18 0 0 0-.206-.644 1.546 1.546 0 0 0-.593-.51 1.934 1.934 0 0 0-.883-.193h-1.785v5.942h-.438v-6.393h2.223c.287 0 .573.048.844.142.255.09.49.23.69.413.183.162.332.359.438.58.096.2.147.421.148.644.006.35-.108.69-.322.967-.196.27-.46.481-.767.612a1.773 1.773 0 0 1-.593.174c-.215.015-.43.015-.644 0l2.307 2.803-.561.052z" fill="#000"/><path fill="#000" d="M25.2292 35.2639L25.2292 28.8774 29.3666 28.8774 29.3666 29.3285 25.6739 29.3285 25.6739 31.8419 28.5481 31.8419 28.5481 32.2994 25.6739 32.2994 25.6739 34.7999 29.3666 34.7999 29.3666 35.2639z"/><path fill="#000" d="M34.9732 35.2639L34.9732 28.8774 39.1041 28.8774 39.1041 29.3285 35.4436 29.3285 35.4436 31.8419 38.3243 31.8419 38.3243 32.2994 35.4436 32.2994 35.4436 34.7999 39.1363 34.7999 39.1363 35.2639z"/><path fill="#000" d="M44.7108 35.2639L44.7108 28.8774 45.1554 28.8774 45.1554 34.7999 48.7385 34.7999 48.7385 35.2445z"/><path d="M55.183 33.64l-.754 1.624h-.49l3.003-6.445 2.836 6.445h-.49l-.702-1.624h-3.403zm1.74-3.75l-1.502 3.312h2.965l-1.463-3.313z" fill="#000"/><path fill="#000" d="M65.5456 30.076L65.5456 35.2315 65.088 35.2315 65.088 28.7871 69.5089 34.0715 69.5089 28.8773 69.9471 28.8773 69.9471 35.3669z"/><path d="M78.621 35.328c-.57 0-1.13-.15-1.624-.438a3.274 3.274 0 0 1-1.598-2.83 3.223 3.223 0 0 1 4.511-2.977c.416.184.789.452 1.096.787l-.348.303a2.714 2.714 0 0 0-.928-.683 2.577 2.577 0 0 0-1.122-.245c-.489-.005-.97.124-1.392.373a2.79 2.79 0 0 0-1.018 1.032 2.81 2.81 0 0 0 0 2.822c.247.425.597.78 1.018 1.031.422.25.903.379 1.392.374.413.002.82-.09 1.193-.27.371-.187.7-.448.966-.767l.355.27c-.301.382-.685.69-1.122.902-.43.209-.901.317-1.379.316z" fill="#000"/><path fill="#000" d="M86.477 35.2639L86.477 28.8774 90.6079 28.8774 90.6079 29.3285 86.9152 29.3285 86.9152 31.8419 89.7959 31.8419 89.7959 32.2994 86.9152 32.2994 86.9152 34.7999 90.6079 34.7999 90.6079 35.2639z"/><path d="M99.984 35.264l-2.648-3.222h.78c.401.013.801-.05 1.179-.187.23-.108.43-.272.58-.477a1.124 1.124 0 0 0 .039-1.347 1.526 1.526 0 0 0-.587-.51 1.934 1.934 0 0 0-.883-.193h-1.778v5.942h-.445v-6.393h2.23c.287 0 .572.048.844.142.252.091.485.232.683.413.186.16.335.357.438.58.099.2.152.42.155.644.003.35-.111.69-.322.967a1.936 1.936 0 0 1-.767.612c-.186.092-.387.15-.593.174-.215.015-.43.015-.645 0l2.308 2.803-.568.052zM9.627 75.323a2.868 2.868 0 0 1-1.475-.4 2.977 2.977 0 0 1-1.47-2.578 2.958 2.958 0 0 1 1.47-2.578 2.81 2.81 0 0 1 1.475-.406c.41.002.813.09 1.186.258.377.17.715.416.993.722l-.31.277a2.616 2.616 0 0 0-.844-.644 2.52 2.52 0 0 0-2.294.122 2.578 2.578 0 0 0-.928 3.512c.227.397.553.728.947.96a2.495 2.495 0 0 0 2.352.09c.339-.163.636-.401.87-.695l.323.251c-.272.348-.62.628-1.019.819a2.888 2.888 0 0 1-1.276.29zm9.79 0a2.835 2.835 0 0 1-1.476-.4 2.972 2.972 0 0 1-1.463-2.578 2.95 2.95 0 0 1 1.463-2.578 2.835 2.835 0 0 1 1.475-.4c.52-.005 1.03.133 1.476.4.454.27.826.658 1.076 1.122.26.453.395.966.394 1.488a2.952 2.952 0 0 1-.394 1.49c-.255.45-.627.824-1.076 1.082a2.803 2.803 0 0 1-1.476.374zm0-5.523c-.454-.01-.9.11-1.29.341a2.578 2.578 0 0 0-1.266 2.217 2.577 2.577 0 0 0 1.267 2.217 2.534 2.534 0 0 0 2.539 0 2.578 2.578 0 0 0 1.266-2.217c0-.452-.119-.897-.345-1.289a2.578 2.578 0 0 0-.921-.928 2.404 2.404 0 0 0-1.25-.341zM29.9 75.323a2.804 2.804 0 0 1-1.475-.4 2.958 2.958 0 0 1-1.47-2.578 2.939 2.939 0 0 1 1.47-2.578 2.803 2.803 0 0 1 1.475-.4c.52-.004 1.03.135 1.476.4.45.272.82.66 1.07 1.122.261.452.397.966.393 1.488a2.886 2.886 0 0 1-.393 1.49 2.926 2.926 0 0 1-1.07 1.082 2.835 2.835 0 0 1-1.476.374zm0-5.523c-.453-.01-.9.108-1.288.341a2.61 2.61 0 0 0-1.248 2.217c0 .453.119.897.345 1.289.226.383.545.703.928.928.39.233.836.352 1.29.341.452.009.899-.11 1.288-.341a2.65 2.65 0 0 0 .922-.928 2.636 2.636 0 0 0 0-2.578 2.649 2.649 0 0 0-.922-.928 2.436 2.436 0 0 0-1.315-.341zm7.824 5.458v-5.8H39.8c.33-.002.654.076.948.226.276.138.513.344.69.599a1.47 1.47 0 0 1 0 1.643c-.177.255-.414.461-.69.6-.292.153-.618.23-.948.225h-1.675v2.52l-.4-.013zm.4-2.939h1.662c.257.002.51-.055.741-.167.217-.097.404-.25.542-.445a1.03 1.03 0 0 0 .206-.644 1.05 1.05 0 0 0-.206-.645 1.327 1.327 0 0 0-.542-.444 1.67 1.67 0 0 0-.74-.168h-1.67l.007 2.513z" fill="#000"/><path fill="#000" d="M46.6118 75.258L46.6118 69.458 50.3754 69.458 50.3754 69.8705 47.0436 69.8705 47.0436 72.1776 49.6214 72.1776 49.6214 72.5835 47.0436 72.5835 47.0436 74.8649 50.4076 74.8649 50.4076 75.2838z"/><path d="M58.914 75.258l-2.41-2.932h.715c.364.012.727-.045 1.07-.168.209-.098.39-.246.529-.431.145-.184.224-.41.225-.645a1.077 1.077 0 0 0-.187-.593 1.36 1.36 0 0 0-.541-.457 1.68 1.68 0 0 0-.8-.18h-1.63v5.406h-.4v-5.8h2.03a2.16 2.16 0 0 1 .768.135c.237.078.456.203.644.368.167.147.303.327.4.528a1.449 1.449 0 0 1-.161 1.489 1.837 1.837 0 0 1-1.238.715c-.184.01-.37.01-.554 0l2.1 2.578-.56-.013zm6.354-1.476l-.69 1.476h-.45l2.739-5.884 2.577 5.884h-.438l-.644-1.476h-3.094zm1.58-3.415l-1.393 3.015h2.726l-1.334-3.016z" fill="#000"/><path fill="#000" d="M78.1508 69.4448L78.1508 69.8573 75.8566 69.8573 75.8566 75.2577 75.4442 75.2577 75.4442 69.8573 73.1371 69.8573 73.1371 69.4448z"/><path fill="#000" d="M83.1324 75.258L83.1324 69.458 83.5384 69.458 83.5384 75.258z"/><path fill="#000" d="M91.0719 74.3555L93.2759 69.4448 93.7205 69.4448 91.0719 75.3608 88.4361 69.4448 88.8743 69.4448z"/><path fill="#000" d="M98.5603 75.258L98.5603 69.458 102.324 69.458 102.324 69.8705 98.9599 69.8705 98.9599 72.1776 101.583 72.1776 101.583 72.5835 98.9599 72.5835 98.9599 74.8649 102.324 74.8649 102.324 75.2838z"/></g></svg>