<svg xmlns="http://www.w3.org/2000/svg" viewBox="0 0 480.007 480.007"><path d="M479.426 267.581c-3.547-24.574-22.852-43.879-47.426-47.426v-14.544c0-40.128-30.504-72.8-68-72.8-36.416 0-66.904 31.68-68 70.624h.464l-.464.08v157.656c0 50.4-37.68 91.328-84 91.328s-84-40.984-84-91.328v-13.656c11.6 0 24-8.408 24-32v-20.12c51.344-13.128 88-57.216 88-107.2v-16.68h-16l-.336-104.12c-.116-19.273-13.946-35.729-32.912-39.16-4.091-12.533-17.568-19.377-30.102-15.285-12.533 4.091-19.377 17.568-15.285 30.102 4.091 12.533 17.568 19.377 30.102 15.285a23.873 23.873 0 0 0 14.741-13.79 24 24 0 0 1 17.432 22.896l.36 104.072h-16v16.912c-.638 27.827-19.294 52.009-46.048 59.688a72.744 72.744 0 0 1-44 0C75.229 240.41 56.615 216.232 56 188.427v-16.912H32v-104a24 24 0 0 1 17.76-23.072c4.869 12.395 18.864 18.495 31.259 13.626S99.514 39.204 94.645 26.81 75.78 8.315 63.386 13.184a24.114 24.114 0 0 0-14.122 15.011C30.091 31.471 16.053 48.064 16 67.515v104H0v16.64c0 50.04 36.68 94.144 88 107.24v20.12c0 23.592 12.4 32 24 32v13.656c0 59.2 44.856 107.328 100 107.328s100-48.184 100-107.328V203.899c.8-30.36 24.144-55.064 52-55.064 28.672 0 52 25.472 52 56.8v14.52c-30.611 4.418-51.844 32.815-47.426 63.426s32.815 51.844 63.426 47.426 51.844-32.816 47.426-63.426zM168 43.515a8 8 0 1 1 0-16 8 8 0 0 1 0 16zm-96-16a8 8 0 1 1 0 16 8 8 0 0 1 0-16zm-56 160.64v-.64h24v.912c.6 34.771 23.733 65.116 57.104 74.904a89.02 89.02 0 0 0 53.744 0c33.387-9.775 56.541-40.121 57.152-74.904v-.912h16v.64c0 44.504-34.304 83.664-81.6 93.136a114.119 114.119 0 0 1-33.752 1.656 104.5 104.5 0 0 1-11.048-1.672c-47.296-9.456-81.6-48.616-81.6-93.12zm96 143.36c-7.2 0-8-11.2-8-16v-16.976c.64.08 1.296.112 1.944.176.8.088 1.6.152 2.4.224 3.784.336 7.6.56 11.448.568h.4c3.84 0 7.648-.232 11.408-.568.8-.072 1.648-.136 2.472-.224.632-.072 1.288-.096 1.92-.176v16.976c0 4.8-.8 16-8 16H112zm312-16c-22.091 0-40-17.909-40-40s17.909-40 40-40 40 17.909 40 40c-.026 22.081-17.92 39.974-40 40z"/><path d="M424 251.515c-13.255 0-24 10.745-24 24s10.745 24 24 24 24-10.745 24-24-10.745-24-24-24zm0 32a8 8 0 1 1 0-16 8 8 0 0 1 0 16z"/></svg>