<svg height="512" viewBox="0 0 64 64" width="512" xmlns="http://www.w3.org/2000/svg"><path d="M58 1H30c-2.757 0-5 2.243-5 5v19.69a18.886 18.886 0 0 0-5-.69C9.523 25 1 33.523 1 44s8.523 19 19 19c7.222 0 13.514-4.052 16.727-10H58c2.757 0 5-2.243 5-5V6c0-2.757-2.243-5-5-5zM36.949 45a16.957 16.957 0 0 1-4.259 10.277l-3.498-3.498-1.414 1.414 3.492 3.492A16.89 16.89 0 0 1 21 60.954V56h-2v4.949A16.957 16.957 0 0 1 8.723 56.69l3.498-3.498-1.414-1.414-3.491 3.492A16.883 16.883 0 0 1 3.047 45H8v-2H3.051A16.957 16.957 0 0 1 7.31 32.723l3.498 3.498 1.414-1.414-3.492-3.491A16.89 16.89 0 0 1 19 27.047V32h2v-4.951c3.933.231 7.497 1.812 10.264 4.273l-2.971 2.971 1.414 1.414 2.971-2.971c2.46 2.766 4.041 6.331 4.272 10.264H32v2zM31 28.537V22a1 1 0 0 1 1-1h8a1 1 0 0 1 1 1v8a1 1 0 0 1-1 1h-6.182A19.107 19.107 0 0 0 31 28.537zM61 48c0 1.654-1.346 3-3 3H37.647c.259-.65.477-1.318.663-2H40c1.654 0 3-1.346 3-3v-8c0-1.654-1.346-3-3-3h-3.273a18.983 18.983 0 0 0-1.264-2H40c1.654 0 3-1.346 3-3v-8c0-1.654-1.346-3-3-3h-8c-1.654 0-3 1.346-3 3v5.273a18.869 18.869 0 0 0-2-.92V6c0-1.654 1.346-3 3-3h28c1.654 0 3 1.346 3 3zM37.647 37H40a1 1 0 0 1 1 1v8a1 1 0 0 1-1 1h-1.261c.157-.98.261-1.977.261-3 0-2.473-.489-4.831-1.353-7z"/><path d="M56 19h-8c-1.654 0-3 1.346-3 3v8c0 1.654 1.346 3 3 3h8c1.654 0 3-1.346 3-3v-8c0-1.654-1.346-3-3-3zm1 11a1 1 0 0 1-1 1h-8a1 1 0 0 1-1-1v-8a1 1 0 0 1 1-1h8a1 1 0 0 1 1 1zm-1 5h-8c-1.654 0-3 1.346-3 3v8c0 1.654 1.346 3 3 3h8c1.654 0 3-1.346 3-3v-8c0-1.654-1.346-3-3-3zm1 11a1 1 0 0 1-1 1h-8a1 1 0 0 1-1-1v-8a1 1 0 0 1 1-1h8a1 1 0 0 1 1 1z"/><path d="M20 57c-7.168 0-13-5.832-13-13s5.832-13 13-13 13 5.832 13 13-5.832 13-13 13z" fill="#f0bc5e"/><path d="M13.287 49.289L25.286 37.29l1.414 1.414L14.7 50.703z"/><path d="M16 43c-1.654 0-3-1.346-3-3s1.346-3 3-3 3 1.346 3 3-1.346 3-3 3zm0-4a1 1 0 1 0 0 2 1 1 0 0 0 0-2z"/><g><path d="M24 51c-1.654 0-3-1.346-3-3s1.346-3 3-3 3 1.346 3 3-1.346 3-3 3zm0-4a1 1 0 1 0 0 2 1 1 0 0 0 0-2z"/></g><g><path d="M56 17H32c-1.654 0-3-1.346-3-3V8c0-1.654 1.346-3 3-3h24c1.654 0 3 1.346 3 3v6c0 1.654-1.346 3-3 3z" fill="#f0bc5e"/></g></svg>